<svg xmlns="http://www.w3.org/2000/svg" width="1280" height="720" viewBox="0 0 1280 720">
  <defs>
    <linearGradient id="bg" x1="0" y1="0" x2="1" y2="1">
      <stop offset="0%" stop-color="#0b080c"/>
      <stop offset="100%" stop-color="#141028"/>
    </linearGradient>
    <linearGradient id="accent" x1="0" y1="0" x2="1" y2="0">
      <stop offset="0%" stop-color="#9b7fd9"/>
      <stop offset="100%" stop-color="#c2a4ff"/>
    </linearGradient>
  </defs>
  <rect width="1280" height="720" fill="url(#bg)"/>
  <rect x="420" y="210" width="100" height="70" rx="12" fill="none" stroke="url(#accent)" stroke-width="3"/>
  <rect x="590" y="210" width="100" height="70" rx="12" fill="none" stroke="url(#accent)" stroke-width="3"/>
  <rect x="760" y="210" width="100" height="70" rx="12" fill="none" stroke="url(#accent)" stroke-width="3"/>
  <path d="M520 245h70M690 245h70" stroke="#c2a4ff" stroke-width="3" stroke-linecap="round"/>
  <path d="M470 280c80 60 260 60 340 0M470 320c80 60 260 60 340 0" fill="none" stroke="#c2a4ff" stroke-width="3" stroke-linecap="round" opacity="0.7"/>
  <circle cx="640" cy="360" r="36" fill="none" stroke="#c2a4ff" stroke-width="4"/>
  <path d="M628 360l8 8 16-16" fill="none" stroke="#c2a4ff" stroke-width="4" stroke-linecap="round" stroke-linejoin="round"/>
  <text x="640" y="470" text-anchor="middle" fill="#c2a4ff" font-family="system-ui,sans-serif" font-size="42" font-weight="600">Zoho Automation</text>
  <text x="640" y="520" text-anchor="middle" fill="#eae5ec" opacity="0.65" font-family="system-ui,sans-serif" font-size="22">Business Process Automation</text>
</svg>
